<?xml version="1.0" encoding="utf-8"?>
<!-- Generator: Adobe Illustrator 26.1.0, SVG Export Plug-In . SVG Version: 6.00 Build 0)  -->
<svg version="1.1" id="Layer_1" xmlns="http://www.w3.org/2000/svg" xmlns:xlink="http://www.w3.org/1999/xlink" x="0px" y="0px"
	 viewBox="0 0 160 30.8" style="enable-background:new 0 0 160 30.8;" xml:space="preserve">
<style type="text/css">
	.st0{fill:#5CA6FD;}
	.st1{fill:#E5E5E5;}
	.st2{fill:#4B8CD5;}
	.st3{fill:#5BA7FF;}
	.st4{fill:#277EE2;}
</style>
<g>
	<g>
		<path class="st0" d="M57.4,25.5H46.6l-1.6,5h-8.9L47.2,0H57l11,30.5h-9L57.4,25.5z M52,9.2l-3.2,9.9h6.5L52,9.2z"/>
		<path class="st0" d="M70.6,0h8.5v17.7c0,3.2,1.4,5.1,4.6,5.1s4.7-2,4.7-5.1V0h8.5v17.7c0,8.7-6.1,13.1-13.4,13.1
			c-7.4,0-12.9-4.4-12.9-13.1C70.6,17.7,70.6,0,70.6,0z"/>
		<path class="st0" d="M114.9,0c7.6,0,11.4,4.3,11.4,9.8c0,4-2.2,7.4-6.7,8.8l6.9,11.9H117l-6.1-11.2H110v11.2h-8.5V0H114.9z
			 M114.2,7.1H110v6.4h4.2c2.3,0,3.5-1.1,3.5-3.2C117.7,8.4,116.5,7.1,114.2,7.1z"/>
		<path class="st0" d="M149.4,25.5h-10.8l-1.6,5h-8.9L139.2,0h9.8l11,30.5h-9L149.4,25.5z M144,9.2l-3.2,9.9h6.5L144,9.2z"/>
	</g>
	<g>
		<g>
			<circle class="st1" cx="6.6" cy="6.8" r="6.6"/>
			<circle class="st2" cx="23.8" cy="6.8" r="6.6"/>
		</g>
		<g>
			<circle class="st3" cx="6.6" cy="24" r="6.6"/>
			<circle class="st4" cx="23.8" cy="24" r="6.6"/>
		</g>
	</g>
</g>
</svg>
