<?xml version="1.0" encoding="UTF-8"?><svg id="a" xmlns="http://www.w3.org/2000/svg" viewBox="0 0 792 223.05"><defs><style>.b{fill:#fff;}.c{fill:#e5e5e5;}.d{fill:#e1e1e1;}.e{fill:#277ee2;}.f{fill:#5ba7ff;}.g{fill:#4b8cd5;}</style></defs><g><path class="b" d="M20.11,3.05H771.89c9.44,0,17.11,7.67,17.11,17.11V202.94c0,9.44-7.67,17.11-17.11,17.11H20.11c-9.44,0-17.11-7.67-17.11-17.11V20.17C3,10.72,10.67,3.05,20.11,3.05Z"/><path class="d" d="M771.89,6.05c7.78,0,14.11,6.33,14.11,14.11V202.94c0,7.78-6.33,14.11-14.11,14.11H20.11c-7.78,0-14.11-6.33-14.11-14.11V20.17c0-7.78,6.33-14.11,14.11-14.11H771.89m0-6H20.11C9,.05,0,9.06,0,20.17V202.94c0,11.11,9,20.11,20.11,20.11H771.89c11.11,0,20.11-9,20.11-20.11V20.17c0-11.11-9-20.11-20.11-20.11h0Z"/></g><path class="g" d="M223,0H771.89c11.1,0,20.11,9.01,20.11,20.11V202.89c0,11.1-9.01,20.11-20.11,20.11H223V0h0Z"/><g><circle class="c" cx="63.46" cy="63.47" r="36.87"/><circle class="g" cx="159.54" cy="63.47" r="36.87"/></g><g><circle class="f" cx="63.46" cy="159.55" r="36.87"/><circle class="e" cx="159.54" cy="159.55" r="36.87"/></g><g><path class="b" d="M346.94,143.61l26.76-74.71h15.91l26.71,74.71h-15.04l-6.1-17.31h-26.87l-6.25,17.31h-15.14Zm24.75-30.49h19.89l-9.87-29.66-10.02,29.66Z"/><path class="b" d="M427.54,143.61V68.9h27.49c5.44,0,10.32,.94,14.62,2.82,4.3,1.88,7.71,4.64,10.21,8.29,2.5,3.65,3.75,8.11,3.75,13.38,0,4.96-1.1,9.2-3.31,12.71s-5.3,6.21-9.27,8.09c-3.98,1.88-8.65,2.82-14.03,2.82h-14.26v26.61h-15.19Zm15.04-38.34h14c3.79,0,6.89-1.21,9.3-3.64,2.41-2.43,3.62-5.43,3.62-9.02s-1.27-6.67-3.82-8.86c-2.55-2.19-5.65-3.28-9.3-3.28h-13.8v24.8Z"/><path class="b" d="M494.97,143.61V68.9h27.49c5.44,0,10.31,.94,14.62,2.82,4.31,1.88,7.71,4.64,10.21,8.29s3.75,8.11,3.75,13.38c0,4.96-1.1,9.2-3.31,12.71-2.21,3.51-5.3,6.21-9.28,8.09-3.98,1.88-8.65,2.82-14.03,2.82h-14.26v26.61h-15.19Zm15.04-38.34h14c3.79,0,6.89-1.21,9.3-3.64,2.41-2.43,3.62-5.43,3.62-9.02s-1.28-6.67-3.82-8.86-5.65-3.28-9.3-3.28h-13.79v24.8Z"/><path class="b" d="M562.4,68.9h15.19v61.95h32.45v12.76h-47.64V68.9Z"/><path class="b" d="M670.91,68.9l-25.99,43.3v31.42h-15.09v-31.47l-25.94-43.25h16.33l17.21,30.28,17-30.28h16.48Z"/></g></svg>