<?xml version="1.0" encoding="UTF-8"?><svg id="a" xmlns="http://www.w3.org/2000/svg" viewBox="0 0 1249 655"><defs><style>.b{fill:#e6e6e6;}.c{fill:#fff;}.d{fill:#e5e5e5;}.e{fill:#e1e1e1;}.f{fill:#277ee2;}.g{fill:#5ba7ff;}.h{fill:#4b8cd5;}</style></defs><rect class="b" width="1249" height="118" rx="7" ry="7"/><rect class="b" y="388" width="1249" height="45" rx="7.21" ry="7.21"/><rect class="b" y="462" width="1249" height="45" rx="7.21" ry="7.21"/><rect class="b" y="536" width="1249" height="45" rx="7.21" ry="7.21"/><rect class="b" y="610" width="406" height="45" rx="7" ry="7"/><g><g><rect class="c" x="1051.93" y="160.51" width="195.57" height="52.91" rx="3.54" ry="3.54"/><path class="e" d="M1243.96,162.01c1.13,0,2.04,.92,2.04,2.04v45.83c0,1.13-.92,2.04-2.04,2.04h-188.48c-1.13,0-2.04-.92-2.04-2.04v-45.83c0-1.13,.92-2.04,2.04-2.04h188.48m0-3h-188.48c-2.78,0-5.04,2.26-5.04,5.04v45.83c0,2.78,2.26,5.04,5.04,5.04h188.48c2.78,0,5.04-2.26,5.04-5.04v-45.83c0-2.78-2.26-5.04-5.04-5.04h0Z"/></g><path class="g" d="M1106.34,159h137.61c2.78,0,5.04,2.26,5.04,5.04v45.83c0,2.78-2.26,5.04-5.04,5.04h-137.61v-55.91h0Z"/><g><circle class="d" cx="1066.34" cy="174.91" r="9.24"/><circle class="h" cx="1090.43" cy="174.91" r="9.24"/></g><g><circle class="g" cx="1066.34" cy="199" r="9.24"/><circle class="f" cx="1090.43" cy="199" r="9.24"/></g><g><path class="c" d="M1137.42,195.01l6.71-18.73h3.99l6.7,18.73h-3.77l-1.53-4.34h-6.74l-1.57,4.34h-3.8Zm6.21-7.64h4.99l-2.47-7.44-2.51,7.44Z"/><path class="c" d="M1157.63,195.01v-18.73h6.89c1.37,0,2.59,.24,3.67,.71,1.08,.47,1.93,1.16,2.56,2.08s.94,2.03,.94,3.35c0,1.24-.28,2.31-.83,3.19s-1.33,1.56-2.33,2.03-2.17,.71-3.52,.71h-3.58v6.67h-3.81Zm3.77-9.61h3.51c.95,0,1.73-.3,2.33-.91s.91-1.36,.91-2.26-.32-1.67-.96-2.22c-.64-.55-1.42-.82-2.33-.82h-3.46v6.22Z"/><path class="c" d="M1174.53,195.01v-18.73h6.89c1.37,0,2.59,.24,3.67,.71,1.08,.47,1.93,1.16,2.56,2.08s.94,2.03,.94,3.35c0,1.24-.28,2.31-.83,3.19s-1.33,1.56-2.33,2.03-2.17,.71-3.52,.71h-3.58v6.67h-3.81Zm3.77-9.61h3.51c.95,0,1.73-.3,2.33-.91s.91-1.36,.91-2.26-.32-1.67-.96-2.22c-.64-.55-1.42-.82-2.33-.82h-3.46v6.22Z"/><path class="c" d="M1191.44,176.27h3.81v15.53h8.13v3.2h-11.94v-18.73Z"/><path class="c" d="M1218.64,176.27l-6.52,10.86v7.88h-3.78v-7.89l-6.5-10.84h4.09l4.31,7.59,4.26-7.59h4.13Z"/></g></g><rect class="b" y="159" width="199" height="187" rx="5.9" ry="5.9"/></svg>